<mxfile host="" modified="2020-06-17T15:02:05.989Z" agent="5.0 (Macintosh; Intel Mac OS X 10_14_0) AppleWebKit/537.36 (KHTML, like Gecko) Code/1.46.0 Chrome/78.0.3904.130 Electron/7.3.1 Safari/537.36" etag="UGec1y_kSHtoCsVvEbLm" version="13.1.3" pages="5">
    <diagram id="6hGFLwfOUW9BJ-s0fimq" name="structure">
        <mxGraphModel dx="1110" dy="414" grid="1" gridSize="10" guides="1" tooltips="1" connect="1" arrows="1" fold="1" page="1" pageScale="1" pageWidth="827" pageHeight="1169" math="0" shadow="0">
            <root>
                <mxCell id="0"/>
                <mxCell id="1" parent="0"/>
                <mxCell id="2" value="" style="swimlane;html=1;startSize=20;horizontal=1;containerType=tree;fillColor=none;strokeColor=none;" parent="1" vertex="1">
                    <mxGeometry x="30" y="30" width="770" height="590" as="geometry"/>
                </mxCell>
                <mxCell id="3" value="" style="edgeStyle=entityRelationEdgeStyle;startArrow=none;endArrow=none;segment=10;curved=1;" parent="2" source="7" target="8" edge="1">
                    <mxGeometry relative="1" as="geometry"/>
                </mxCell>
                <mxCell id="7" value="styling" style="ellipse;whiteSpace=wrap;html=1;align=center;treeFolding=1;treeMoving=1;newEdgeStyle={&quot;edgeStyle&quot;:&quot;entityRelationEdgeStyle&quot;,&quot;startArrow&quot;:&quot;none&quot;,&quot;endArrow&quot;:&quot;none&quot;,&quot;segment&quot;:10,&quot;curved&quot;:1};" parent="2" vertex="1">
                    <mxGeometry x="10" y="150" width="100" height="40" as="geometry"/>
                </mxCell>
                <mxCell id="8" value="font" style="whiteSpace=wrap;html=1;rounded=1;arcSize=50;align=center;verticalAlign=middle;strokeWidth=1;autosize=1;spacing=4;treeFolding=1;treeMoving=1;newEdgeStyle={&quot;edgeStyle&quot;:&quot;entityRelationEdgeStyle&quot;,&quot;startArrow&quot;:&quot;none&quot;,&quot;endArrow&quot;:&quot;none&quot;,&quot;segment&quot;:10,&quot;curved&quot;:1};" parent="2" vertex="1">
                    <mxGeometry x="130" y="70" width="70" height="30" as="geometry"/>
                </mxCell>
                <mxCell id="12" value="" style="edgeStyle=entityRelationEdgeStyle;startArrow=none;endArrow=none;segment=10;curved=1;" parent="2" source="7" target="13" edge="1">
                    <mxGeometry relative="1" as="geometry">
                        <mxPoint x="140" y="90" as="sourcePoint"/>
                    </mxGeometry>
                </mxCell>
                <mxCell id="13" value="line" style="whiteSpace=wrap;html=1;rounded=1;arcSize=50;align=center;verticalAlign=middle;strokeWidth=1;autosize=1;spacing=4;treeFolding=1;treeMoving=1;newEdgeStyle={&quot;edgeStyle&quot;:&quot;entityRelationEdgeStyle&quot;,&quot;startArrow&quot;:&quot;none&quot;,&quot;endArrow&quot;:&quot;none&quot;,&quot;segment&quot;:10,&quot;curved&quot;:1};" parent="2" vertex="1">
                    <mxGeometry x="130" y="240" width="75" height="30" as="geometry"/>
                </mxCell>
                <mxCell id="14" value="" style="edgeStyle=entityRelationEdgeStyle;startArrow=none;endArrow=none;segment=10;curved=1;" parent="2" source="8" target="15" edge="1">
                    <mxGeometry relative="1" as="geometry">
                        <mxPoint x="140" y="100" as="sourcePoint"/>
                    </mxGeometry>
                </mxCell>
                <mxCell id="15" value="&lt;div&gt;font-family&lt;/div&gt;" style="whiteSpace=wrap;html=1;rounded=1;arcSize=50;align=center;verticalAlign=middle;strokeWidth=1;autosize=1;spacing=4;treeFolding=1;treeMoving=1;newEdgeStyle={&quot;edgeStyle&quot;:&quot;entityRelationEdgeStyle&quot;,&quot;startArrow&quot;:&quot;none&quot;,&quot;endArrow&quot;:&quot;none&quot;,&quot;segment&quot;:10,&quot;curved&quot;:1};" parent="2" vertex="1">
                    <mxGeometry x="220" y="10" width="100" height="30" as="geometry"/>
                </mxCell>
                <mxCell id="16" value="" style="edgeStyle=entityRelationEdgeStyle;startArrow=none;endArrow=none;segment=10;curved=1;" parent="2" source="8" target="17" edge="1">
                    <mxGeometry relative="1" as="geometry">
                        <mxPoint x="230" y="115" as="sourcePoint"/>
                    </mxGeometry>
                </mxCell>
                <mxCell id="17" value="&lt;div&gt;font-size&lt;/div&gt;" style="whiteSpace=wrap;html=1;rounded=1;arcSize=50;align=center;verticalAlign=middle;strokeWidth=1;autosize=1;spacing=4;treeFolding=1;treeMoving=1;newEdgeStyle={&quot;edgeStyle&quot;:&quot;entityRelationEdgeStyle&quot;,&quot;startArrow&quot;:&quot;none&quot;,&quot;endArrow&quot;:&quot;none&quot;,&quot;segment&quot;:10,&quot;curved&quot;:1};" parent="2" vertex="1">
                    <mxGeometry x="220" y="140" width="100" height="30" as="geometry"/>
                </mxCell>
                <mxCell id="22" value="" style="edgeStyle=entityRelationEdgeStyle;startArrow=none;endArrow=none;segment=10;curved=1;" parent="2" source="7" target="23" edge="1">
                    <mxGeometry relative="1" as="geometry">
                        <mxPoint x="140" y="200" as="sourcePoint"/>
                    </mxGeometry>
                </mxCell>
                <mxCell id="23" value="background" style="whiteSpace=wrap;html=1;rounded=1;arcSize=50;align=center;verticalAlign=middle;strokeWidth=1;autosize=1;spacing=4;treeFolding=1;treeMoving=1;newEdgeStyle={&quot;edgeStyle&quot;:&quot;entityRelationEdgeStyle&quot;,&quot;startArrow&quot;:&quot;none&quot;,&quot;endArrow&quot;:&quot;none&quot;,&quot;segment&quot;:10,&quot;curved&quot;:1};" parent="2" vertex="1">
                    <mxGeometry x="130" y="460" width="100" height="30" as="geometry"/>
                </mxCell>
                <mxCell id="24" value="" style="edgeStyle=entityRelationEdgeStyle;startArrow=none;endArrow=none;segment=10;curved=1;" parent="2" source="7" target="25" edge="1">
                    <mxGeometry relative="1" as="geometry">
                        <mxPoint x="140" y="200" as="sourcePoint"/>
                    </mxGeometry>
                </mxCell>
                <mxCell id="25" value="shape" style="whiteSpace=wrap;html=1;rounded=1;arcSize=50;align=center;verticalAlign=middle;strokeWidth=1;autosize=1;spacing=4;treeFolding=1;treeMoving=1;newEdgeStyle={&quot;edgeStyle&quot;:&quot;entityRelationEdgeStyle&quot;,&quot;startArrow&quot;:&quot;none&quot;,&quot;endArrow&quot;:&quot;none&quot;,&quot;segment&quot;:10,&quot;curved&quot;:1};" parent="2" vertex="1">
                    <mxGeometry x="130" y="350" width="80" height="30" as="geometry"/>
                </mxCell>
                <mxCell id="tOGVPmUKeigNipoaprym-25" value="" style="edgeStyle=entityRelationEdgeStyle;startArrow=none;endArrow=none;segment=10;curved=1;" parent="2" source="8" target="tOGVPmUKeigNipoaprym-26" edge="1">
                    <mxGeometry relative="1" as="geometry">
                        <mxPoint x="230" y="125" as="sourcePoint"/>
                    </mxGeometry>
                </mxCell>
                <mxCell id="tOGVPmUKeigNipoaprym-26" value="&lt;div&gt;font-color&lt;/div&gt;" style="whiteSpace=wrap;html=1;rounded=1;arcSize=50;align=center;verticalAlign=middle;strokeWidth=1;autosize=1;spacing=4;treeFolding=1;treeMoving=1;newEdgeStyle={&quot;edgeStyle&quot;:&quot;entityRelationEdgeStyle&quot;,&quot;startArrow&quot;:&quot;none&quot;,&quot;endArrow&quot;:&quot;none&quot;,&quot;segment&quot;:10,&quot;curved&quot;:1};" parent="2" vertex="1">
                    <mxGeometry x="225" y="70" width="90" height="30" as="geometry"/>
                </mxCell>
            </root>
        </mxGraphModel>
    </diagram>
    <diagram id="oF5KC3iEQPtha0IU7w0N" name="font">
        <mxGraphModel dx="1110" dy="414" grid="1" gridSize="10" guides="1" tooltips="1" connect="1" arrows="1" fold="1" page="1" pageScale="1" pageWidth="827" pageHeight="1169" math="0" shadow="0">
            <root>
                <mxCell id="TBLeF-N8mXJ4oL1E92x8-0"/>
                <mxCell id="TBLeF-N8mXJ4oL1E92x8-1" parent="TBLeF-N8mXJ4oL1E92x8-0"/>
                <mxCell id="TBLeF-N8mXJ4oL1E92x8-3" value="&lt;table cellpadding=&quot;4&quot; cellspacing=&quot;0&quot; border=&quot;1&quot; style=&quot;font-size: 1em ; width: 100% ; height: 100% ; border: 1px solid rgb(221 , 221 , 221) ; border-collapse: collapse&quot;&gt;&lt;tbody&gt;&lt;tr&gt;&lt;th&gt;&lt;span style=&quot;font-weight: normal&quot;&gt;elements&lt;/span&gt;&lt;/th&gt;&lt;td&gt;box&lt;/td&gt;&lt;th style=&quot;text-align: center&quot;&gt;&lt;span style=&quot;font-weight: normal&quot;&gt;font-family&lt;/span&gt;&lt;/th&gt;&lt;td&gt;&lt;span&gt;font-size&lt;/span&gt;&lt;/td&gt;&lt;td&gt;&lt;span&gt;line-height&lt;/span&gt;&lt;/td&gt;&lt;td&gt;&lt;span&gt;color&lt;/span&gt;&lt;/td&gt;&lt;td&gt;background-color&lt;/td&gt;&lt;td&gt;&lt;span&gt;font-weight&lt;/span&gt;&lt;/td&gt;&lt;td&gt;&lt;span&gt;letter-spacing&lt;/span&gt;&lt;/td&gt;&lt;td&gt;&lt;span&gt;text-align&lt;/span&gt;&lt;/td&gt;&lt;td&gt;&lt;span&gt;text-decoration&lt;/span&gt;&lt;/td&gt;&lt;td&gt;cursor&lt;/td&gt;&lt;/tr&gt;&lt;tr&gt;&lt;td style=&quot;background-color: rgb(237 , 64 , 64)&quot;&gt;&lt;font color=&quot;#ffffff&quot;&gt;html normalize.css&lt;/font&gt;&lt;/td&gt;&lt;td&gt;&lt;br&gt;&lt;/td&gt;&lt;td&gt;&lt;br&gt;&lt;/td&gt;&lt;td&gt;&lt;br&gt;&lt;/td&gt;&lt;td&gt;&lt;br&gt;&lt;/td&gt;&lt;td&gt;&lt;br&gt;&lt;/td&gt;&lt;td&gt;&lt;br&gt;&lt;/td&gt;&lt;td&gt;&lt;br&gt;&lt;/td&gt;&lt;td&gt;&lt;br&gt;&lt;/td&gt;&lt;td&gt;&lt;br&gt;&lt;/td&gt;&lt;td&gt;&lt;br&gt;&lt;/td&gt;&lt;td&gt;&lt;br&gt;&lt;/td&gt;&lt;/tr&gt;&lt;tr&gt;&lt;td&gt;&lt;span&gt;&amp;lt;body&amp;gt;&amp;lt;/body&amp;gt;&lt;/span&gt;&lt;/td&gt;&lt;td&gt;&lt;br&gt;&lt;/td&gt;&lt;td&gt;&lt;font&gt;&lt;span&gt;Verdana, &lt;br&gt;Helvetica, &lt;br&gt;Arial, &lt;br&gt;sans-serif&lt;br&gt;&lt;/span&gt;&lt;/font&gt;&lt;/td&gt;&lt;td&gt;&lt;span&gt;100%&lt;/span&gt;&lt;/td&gt;&lt;td&gt;&lt;span&gt;1.5&lt;/span&gt;&lt;/td&gt;&lt;td&gt;#181818&lt;span&gt;&lt;br&gt;&lt;/span&gt;&lt;/td&gt;&lt;td&gt;&lt;br&gt;&lt;/td&gt;&lt;td&gt;&lt;span&gt;normal&lt;/span&gt;&lt;/td&gt;&lt;td&gt;&lt;span&gt;&lt;br&gt;&lt;/span&gt;&lt;/td&gt;&lt;td&gt;&lt;span&gt;&lt;br&gt;&lt;/span&gt;&lt;/td&gt;&lt;td&gt;&lt;span&gt;&lt;br&gt;&lt;/span&gt;&lt;/td&gt;&lt;td&gt;&lt;br&gt;&lt;/td&gt;&lt;/tr&gt;&lt;tr style=&quot;line-height: 130%&quot;&gt;&lt;td&gt;&lt;span&gt;&lt;b&gt;&amp;lt;h1&amp;gt;&amp;lt;/h1&amp;gt;&lt;br&gt;&lt;/b&gt;&lt;br&gt;&lt;b&gt;&lt;font style=&quot;font-size: 24px&quot;&gt;Hello, World!&lt;/font&gt;&lt;/b&gt;&lt;/span&gt;&lt;/td&gt;&lt;td&gt;&lt;br&gt;&lt;/td&gt;&lt;td&gt;&lt;/td&gt;&lt;td&gt;&lt;span&gt;2em&lt;/span&gt;&lt;/td&gt;&lt;td&gt;&lt;span&gt;1.3em&lt;br&gt;&lt;/span&gt;&lt;/td&gt;&lt;td&gt;&lt;/td&gt;&lt;td&gt;&lt;br&gt;&lt;/td&gt;&lt;td&gt;&lt;span&gt;&lt;b&gt;600&lt;/b&gt;&lt;/span&gt;&lt;/td&gt;&lt;td&gt;&lt;span&gt;&lt;br&gt;&lt;/span&gt;&lt;/td&gt;&lt;td&gt;&lt;br&gt;&lt;/td&gt;&lt;td&gt;&lt;span&gt;&lt;br&gt;&lt;/span&gt;&lt;/td&gt;&lt;td&gt;&lt;br&gt;&lt;/td&gt;&lt;/tr&gt;&lt;tr&gt;&lt;td&gt;&lt;font color=&quot;#888888&quot;&gt;.dateline&lt;br&gt;&lt;br&gt;Last updated July 10, 2020&lt;/font&gt;&lt;/td&gt;&lt;td&gt;&lt;br&gt;&lt;/td&gt;&lt;td&gt;&lt;br&gt;&lt;/td&gt;&lt;td&gt;&lt;br&gt;&lt;/td&gt;&lt;td&gt;1.5&lt;/td&gt;&lt;td&gt;&lt;font color=&quot;#888888&quot;&gt;#888&lt;/font&gt;&lt;/td&gt;&lt;td&gt;&lt;br&gt;&lt;/td&gt;&lt;td&gt;300&lt;/td&gt;&lt;td&gt;&lt;br&gt;&lt;/td&gt;&lt;td&gt;&lt;br&gt;&lt;/td&gt;&lt;td&gt;&lt;br&gt;&lt;/td&gt;&lt;td&gt;&lt;br&gt;&lt;/td&gt;&lt;/tr&gt;&lt;tr style=&quot;line-height: 140%&quot;&gt;&lt;td&gt;&lt;b&gt;&amp;lt;h2&amp;gt;&amp;lt;/h2&amp;gt;&lt;br&gt;&lt;/b&gt;&lt;br&gt;&lt;font style=&quot;font-size: 19px&quot;&gt;&lt;b&gt;Hello, world!&lt;/b&gt;&lt;/font&gt;&lt;/td&gt;&lt;td&gt;&lt;/td&gt;&lt;td&gt;&lt;br&gt;&lt;/td&gt;&lt;td&gt;24px&lt;/td&gt;&lt;td&gt;1.4em&lt;/td&gt;&lt;td&gt;&lt;/td&gt;&lt;td&gt;&lt;br&gt;&lt;/td&gt;&lt;td&gt;&lt;b&gt;600&lt;/b&gt;&lt;br&gt;&lt;/td&gt;&lt;td&gt;1px&lt;/td&gt;&lt;td&gt;&lt;br&gt;&lt;/td&gt;&lt;td&gt;&lt;br&gt;&lt;/td&gt;&lt;td&gt;&lt;br&gt;&lt;/td&gt;&lt;/tr&gt;&lt;tr style=&quot;line-height: 160%&quot;&gt;&lt;td&gt;&amp;lt;p&amp;gt;&amp;lt;/p&amp;gt;&lt;br&gt;hello,...............world!&lt;/td&gt;&lt;td&gt;&lt;br&gt;&lt;/td&gt;&lt;td&gt;&lt;br&gt;&lt;/td&gt;&lt;td&gt;&lt;br&gt;&lt;/td&gt;&lt;td&gt;1.6em&lt;/td&gt;&lt;td&gt;&lt;br&gt;&lt;/td&gt;&lt;td&gt;&lt;br&gt;&lt;/td&gt;&lt;td&gt;300&lt;/td&gt;&lt;td&gt;&lt;br&gt;&lt;/td&gt;&lt;td&gt;&lt;br&gt;&lt;/td&gt;&lt;td&gt;&lt;br&gt;&lt;/td&gt;&lt;td&gt;&lt;br&gt;&lt;/td&gt;&lt;/tr&gt;&lt;tr&gt;&lt;td&gt;&lt;span&gt;&lt;font color=&quot;#1886a8&quot;&gt;&amp;lt;a&amp;gt;&amp;lt;/a&amp;gt;&lt;br&gt;&lt;/font&gt;&lt;br&gt;&lt;font color=&quot;#1886a8&quot;&gt;https://www.helloworld.com&lt;/font&gt;&lt;/span&gt;&lt;/td&gt;&lt;td&gt;&lt;br&gt;&lt;/td&gt;&lt;td&gt;&lt;/td&gt;&lt;td&gt;&lt;span&gt;&lt;br&gt;&lt;/span&gt;&lt;/td&gt;&lt;td&gt;&lt;span&gt;&lt;br&gt;&lt;/span&gt;&lt;/td&gt;&lt;td&gt;&lt;font color=&quot;#118df0&quot;&gt;#&lt;/font&gt;&lt;font color=&quot;#1886a8&quot;&gt;1886a8&lt;/font&gt;&lt;br&gt;&lt;/td&gt;&lt;td&gt;&lt;br&gt;&lt;/td&gt;&lt;td&gt;&lt;span&gt;300&lt;/span&gt;&lt;/td&gt;&lt;td&gt;&lt;span&gt;&lt;br&gt;&lt;/span&gt;&lt;/td&gt;&lt;td&gt;&lt;span&gt;&lt;br&gt;&lt;/span&gt;&lt;/td&gt;&lt;td&gt;&lt;span&gt;none&lt;/span&gt;&lt;/td&gt;&lt;td&gt;pointer&lt;/td&gt;&lt;/tr&gt;&lt;tr&gt;&lt;td&gt;&amp;lt;ul&amp;gt;&amp;lt;/ul&amp;gt;&lt;/td&gt;&lt;td&gt;&lt;br&gt;&lt;/td&gt;&lt;td&gt;&lt;br&gt;&lt;/td&gt;&lt;td&gt;&lt;/td&gt;&lt;td&gt;1.5em&lt;/td&gt;&lt;td&gt;&lt;br&gt;&lt;/td&gt;&lt;td&gt;&lt;br&gt;&lt;/td&gt;&lt;td&gt;lighter&lt;/td&gt;&lt;td&gt;&lt;br&gt;&lt;/td&gt;&lt;td&gt;&lt;br&gt;&lt;/td&gt;&lt;td&gt;&lt;br&gt;&lt;/td&gt;&lt;td&gt;&lt;br&gt;&lt;/td&gt;&lt;/tr&gt;&lt;tr&gt;&lt;td&gt;&amp;lt;table&amp;gt;&amp;lt;/table&amp;gt;&lt;/td&gt;&lt;td&gt;border: 1px solid #ddd&lt;br&gt;&lt;/td&gt;&lt;td&gt;&lt;br&gt;&lt;/td&gt;&lt;td&gt;&lt;br&gt;&lt;/td&gt;&lt;td&gt;&lt;br&gt;&lt;/td&gt;&lt;td&gt;&lt;br&gt;&lt;/td&gt;&lt;td&gt;&lt;br&gt;&lt;/td&gt;&lt;td&gt;&lt;br&gt;&lt;/td&gt;&lt;td&gt;&lt;br&gt;&lt;/td&gt;&lt;td&gt;&lt;br&gt;&lt;/td&gt;&lt;td&gt;&lt;br&gt;&lt;/td&gt;&lt;td&gt;&lt;br&gt;&lt;/td&gt;&lt;/tr&gt;&lt;tr&gt;&lt;td&gt;&lt;font color=&quot;#4c4c4c&quot;&gt;&lt;b&gt;(.user-nav)&lt;br&gt;&lt;/b&gt;&lt;/font&gt;&lt;br&gt;&lt;b&gt;&lt;font color=&quot;#4c4c4c&quot; style=&quot;font-size: 10px&quot;&gt;HELP&amp;nbsp; &amp;nbsp;FORUM&amp;nbsp; &amp;nbsp;LOGIN&lt;/font&gt;&lt;/b&gt;&lt;/td&gt;&lt;td&gt;&lt;/td&gt;&lt;td&gt;&lt;br&gt;&lt;/td&gt;&lt;td&gt;12px&lt;/td&gt;&lt;td&gt;32px&lt;/td&gt;&lt;td&gt;&lt;span style=&quot;color: rgb(76 , 76 , 76)&quot;&gt;#4c4c4c&lt;/span&gt;&lt;br&gt;&lt;/td&gt;&lt;td&gt;&lt;br&gt;&lt;/td&gt;&lt;td&gt;&lt;b&gt;600&lt;/b&gt;&lt;/td&gt;&lt;td&gt;1px&lt;/td&gt;&lt;td&gt;&lt;br&gt;&lt;/td&gt;&lt;td&gt;none&lt;/td&gt;&lt;td&gt;&lt;br&gt;&lt;/td&gt;&lt;/tr&gt;&lt;tr&gt;&lt;td&gt;&lt;font color=&quot;#4c4c4c&quot;&gt;(.sidebar-nav)&lt;br&gt;&lt;br&gt;Getting Started&lt;br&gt;&lt;br&gt;Account&lt;br&gt;&lt;br&gt;Marketing&lt;br&gt;&lt;br&gt;...&lt;/font&gt;&lt;br&gt;&lt;/td&gt;&lt;td&gt;&lt;br&gt;&lt;/td&gt;&lt;td&gt;&lt;br&gt;&lt;/td&gt;&lt;td&gt;16px&lt;/td&gt;&lt;td&gt;1em&lt;/td&gt;&lt;td&gt;&lt;font color=&quot;#4c4c4c&quot;&gt;#4c4c4c&lt;/font&gt;&lt;/td&gt;&lt;td&gt;&lt;br&gt;&lt;/td&gt;&lt;td&gt;300&lt;br&gt;:hover: &lt;b&gt;600&lt;/b&gt;&lt;/td&gt;&lt;td&gt;&lt;br&gt;&lt;/td&gt;&lt;td&gt;&lt;br&gt;&lt;/td&gt;&lt;td&gt;&lt;br&gt;&lt;/td&gt;&lt;td&gt;&lt;br&gt;&lt;/td&gt;&lt;/tr&gt;&lt;tr&gt;&lt;td style=&quot;background-color: rgb(245 , 245 , 245)&quot;&gt;(.table-of-contents)&lt;br&gt;&lt;br&gt;&lt;span&gt;&lt;font color=&quot;#444444&quot;&gt;&lt;b&gt;Contents (.toc-title)&lt;/b&gt;&lt;/font&gt;&lt;/span&gt;&lt;/td&gt;&lt;td&gt;&lt;br&gt;&lt;/td&gt;&lt;td&gt;&lt;br&gt;&lt;/td&gt;&lt;td&gt;18px&lt;/td&gt;&lt;td&gt;1em&lt;/td&gt;&lt;td&gt;#444&lt;/td&gt;&lt;td style=&quot;background-color: rgb(245 , 245 , 245)&quot;&gt;#f5f5f5&lt;/td&gt;&lt;td&gt;500&lt;/td&gt;&lt;td&gt;&lt;br&gt;&lt;/td&gt;&lt;td&gt;&lt;br&gt;&lt;/td&gt;&lt;td&gt;&lt;br&gt;&lt;/td&gt;&lt;td&gt;&lt;br&gt;&lt;/td&gt;&lt;/tr&gt;&lt;tr&gt;&lt;td style=&quot;background-color: rgb(245 , 245 , 245)&quot;&gt;&lt;div&gt;&lt;font color=&quot;#b8b8b8&quot;&gt;(.toc-links)&lt;/font&gt;&lt;/div&gt;&lt;ol style=&quot;line-height: 140%&quot;&gt;&lt;li&gt;&lt;font color=&quot;#b8b8b8&quot;&gt;li: chapter1&lt;/font&gt;&lt;/li&gt;&lt;li&gt;&lt;font color=&quot;#b8b8b8&quot;&gt;li: chapter2&lt;/font&gt;&lt;/li&gt;&lt;li&gt;&lt;font color=&quot;#737373&quot;&gt;li a: chapter3&lt;/font&gt;&lt;/li&gt;&lt;li&gt;&lt;font color=&quot;#737373&quot;&gt;li a: chapter4&lt;/font&gt;&lt;/li&gt;&lt;/ol&gt;&lt;/td&gt;&lt;td&gt;&lt;br&gt;&lt;/td&gt;&lt;td&gt;&lt;br&gt;&lt;/td&gt;&lt;td&gt;14px&lt;/td&gt;&lt;td&gt;1.4em&lt;/td&gt;&lt;td&gt;&lt;font color=&quot;#b8b8b8&quot;&gt;li: #b8b8b8&lt;br&gt;&lt;/font&gt;&lt;font color=&quot;#737373&quot;&gt;li a:#737373&lt;/font&gt;&lt;/td&gt;&lt;td style=&quot;background-color: rgb(245 , 245 , 245)&quot;&gt;&lt;br&gt;&lt;/td&gt;&lt;td&gt;300&lt;/td&gt;&lt;td&gt;&lt;br&gt;&lt;/td&gt;&lt;td&gt;&lt;br&gt;&lt;/td&gt;&lt;td&gt;li a: none&lt;/td&gt;&lt;td&gt;&lt;br&gt;&lt;/td&gt;&lt;/tr&gt;&lt;tr style=&quot;line-height: 140%&quot;&gt;&lt;td style=&quot;background-color: rgb(227 , 227 , 227)&quot;&gt;&amp;lt;h3&amp;gt;&amp;lt;/h3&amp;gt;&lt;br&gt;.related-articals&lt;br&gt;&lt;br&gt;&lt;b&gt;&lt;font style=&quot;font-size: 16px&quot;&gt;Related articals&lt;/font&gt;&lt;/b&gt; (.related-articals-title)&lt;br&gt;&lt;/td&gt;&lt;td&gt;&lt;br&gt;&lt;/td&gt;&lt;td&gt;&lt;br&gt;&lt;/td&gt;&lt;td&gt;21px&lt;/td&gt;&lt;td&gt;1.4em&lt;/td&gt;&lt;td&gt;&lt;br&gt;&lt;/td&gt;&lt;td&gt;&lt;br&gt;&lt;/td&gt;&lt;td&gt;600&lt;/td&gt;&lt;td&gt;1px&lt;/td&gt;&lt;td&gt;&lt;br&gt;&lt;/td&gt;&lt;td&gt;&lt;br&gt;&lt;/td&gt;&lt;td&gt;&lt;br&gt;&lt;/td&gt;&lt;/tr&gt;&lt;tr&gt;&lt;td style=&quot;background-color: rgb(227 , 227 , 227)&quot;&gt;&lt;font color=&quot;#d61313&quot; style=&quot;line-height: 150%&quot;&gt;Changing colors&lt;br&gt;Chaning fonts&lt;br&gt;Chaning others&lt;/font&gt;&lt;br&gt;&lt;/td&gt;&lt;td&gt;&lt;br&gt;&lt;/td&gt;&lt;td&gt;&lt;br&gt;&lt;/td&gt;&lt;td&gt;&lt;br&gt;&lt;/td&gt;&lt;td&gt;1.5&lt;/td&gt;&lt;td&gt;&lt;font color=&quot;#d61313&quot;&gt;#d61313&lt;/font&gt;&lt;/td&gt;&lt;td&gt;&lt;br&gt;&lt;/td&gt;&lt;td&gt;lighter&lt;/td&gt;&lt;td&gt;&lt;br&gt;&lt;/td&gt;&lt;td&gt;&lt;br&gt;&lt;/td&gt;&lt;td&gt;&lt;br&gt;&lt;/td&gt;&lt;td&gt;&lt;br&gt;&lt;/td&gt;&lt;/tr&gt;&lt;/tbody&gt;&lt;/table&gt; " style="verticalAlign=top;align=left;overflow=fill;fontSize=12;fontFamily=Verdana;html=1;fillColor=#ffffff;fontColor=#181818;fontStyle=0;labelBorderColor=none;strokeColor=none;" parent="TBLeF-N8mXJ4oL1E92x8-1" vertex="1">
                    <mxGeometry x="10" y="20" width="1370" height="920" as="geometry"/>
                </mxCell>
            </root>
        </mxGraphModel>
    </diagram>
    <diagram id="vGe6VX9jg-8i5a7MuvIv" name="components">
        <mxGraphModel dx="1350" dy="414" grid="1" gridSize="10" guides="1" tooltips="1" connect="1" arrows="1" fold="1" page="1" pageScale="1" pageWidth="827" pageHeight="1169" math="0" shadow="0">
            <root>
                <mxCell id="bYgDLwjeZUtzFASK9N-h-0"/>
                <mxCell id="bYgDLwjeZUtzFASK9N-h-1" parent="bYgDLwjeZUtzFASK9N-h-0"/>
            </root>
        </mxGraphModel>
    </diagram>
    <diagram id="GMaMk7fQekAmMxBywP42" name="color-combination">
        <mxGraphModel dx="1350" dy="414" grid="1" gridSize="10" guides="1" tooltips="1" connect="1" arrows="1" fold="1" page="1" pageScale="1" pageWidth="827" pageHeight="1169" math="0" shadow="0">
            <root>
                <mxCell id="rh6Fz4FsMZSNxKYHmV9w-0"/>
                <mxCell id="rh6Fz4FsMZSNxKYHmV9w-1" parent="rh6Fz4FsMZSNxKYHmV9w-0"/>
                <mxCell id="rh6Fz4FsMZSNxKYHmV9w-2" value="div {&lt;br&gt;&amp;nbsp; &amp;nbsp; background-color: #ed4040&lt;br&gt;&amp;nbsp; &amp;nbsp; color: while&lt;br&gt;&amp;nbsp; &amp;nbsp; border-style: none&lt;br&gt;}" style="rounded=1;whiteSpace=wrap;html=1;fillColor=#ed4040;align=left;spacingTop=0;spacing=10;labelBorderColor=none;strokeColor=none;fontColor=#FFFFFF;" parent="rh6Fz4FsMZSNxKYHmV9w-1" vertex="1">
                    <mxGeometry x="20" y="40" width="190" height="110" as="geometry"/>
                </mxCell>
                <mxCell id="1mLIr0mYkjQ5WRi9gZdw-13" value="div {&lt;br&gt;&amp;nbsp; &amp;nbsp; background-color: #118888&lt;br&gt;&amp;nbsp; &amp;nbsp; color: while&lt;br&gt;&amp;nbsp; &amp;nbsp; border-style: none&lt;br&gt;}" style="rounded=1;whiteSpace=wrap;html=1;fillColor=#118888;align=left;spacingTop=0;spacing=10;labelBorderColor=none;strokeColor=none;fontColor=#FFFFFF;" parent="rh6Fz4FsMZSNxKYHmV9w-1" vertex="1">
                    <mxGeometry x="290" y="40" width="190" height="110" as="geometry"/>
                </mxCell>
            </root>
        </mxGraphModel>
    </diagram>
    <diagram id="Xvpb6GsMi1SjLkQDulcn" name="relations">
        &#xa;        
        <mxGraphModel dx="1034" dy="480" grid="1" gridSize="10" guides="1" tooltips="1" connect="1" arrows="1" fold="1" page="1" pageScale="1" pageWidth="827" pageHeight="1169" math="0" shadow="0">
            &#xa;            
            <root>
                &#xa;                
                <mxCell id="7R14fCLwrGg5KSLKVecQ-0"/>
                &#xa;                
                <mxCell id="7R14fCLwrGg5KSLKVecQ-1" parent="7R14fCLwrGg5KSLKVecQ-0"/>
                &#xa;                
                <mxCell id="JionX5n11fjDRd3rEtIe-1" value="" style="group" parent="7R14fCLwrGg5KSLKVecQ-1" vertex="1" connectable="0">
                    &#xa;                    
                    <mxGeometry x="40" y="50" width="380" height="230" as="geometry"/>
                    &#xa;                
                </mxCell>
                &#xa;                
                <mxCell id="7R14fCLwrGg5KSLKVecQ-2" value="" style="ellipse;whiteSpace=wrap;html=1;" parent="JionX5n11fjDRd3rEtIe-1" vertex="1">
                    &#xa;                    
                    <mxGeometry width="380" height="230" as="geometry"/>
                    &#xa;                
                </mxCell>
                &#xa;                
                <mxCell id="7R14fCLwrGg5KSLKVecQ-3" value="" style="ellipse;whiteSpace=wrap;html=1;" parent="JionX5n11fjDRd3rEtIe-1" vertex="1">
                    &#xa;                    
                    <mxGeometry x="90" y="75" width="270" height="130" as="geometry"/>
                    &#xa;                
                </mxCell>
                &#xa;                
                <mxCell id="7R14fCLwrGg5KSLKVecQ-4" value="" style="ellipse;whiteSpace=wrap;html=1;" parent="JionX5n11fjDRd3rEtIe-1" vertex="1">
                    &#xa;                    
                    <mxGeometry x="190" y="120" width="140" height="65" as="geometry"/>
                    &#xa;                
                </mxCell>
                &#xa;                
                <mxCell id="7R14fCLwrGg5KSLKVecQ-7" value="Artificial &lt;br&gt;intelligence" style="text;html=1;align=center;verticalAlign=middle;resizable=0;points=[];autosize=1;" parent="JionX5n11fjDRd3rEtIe-1" vertex="1">
                    &#xa;                    
                    <mxGeometry x="80" y="35" width="80" height="30" as="geometry"/>
                    &#xa;                
                </mxCell>
                &#xa;                
                <mxCell id="7R14fCLwrGg5KSLKVecQ-8" value="Maching&lt;br&gt;learning" style="text;html=1;align=center;verticalAlign=middle;resizable=0;points=[];autosize=1;" parent="JionX5n11fjDRd3rEtIe-1" vertex="1">
                    &#xa;                    
                    <mxGeometry x="150" y="90" width="60" height="30" as="geometry"/>
                    &#xa;                
                </mxCell>
                &#xa;                
                <mxCell id="7R14fCLwrGg5KSLKVecQ-9" value="Deep&lt;br&gt;learning" style="text;html=1;align=center;verticalAlign=middle;resizable=0;points=[];autosize=1;" parent="JionX5n11fjDRd3rEtIe-1" vertex="1">
                    &#xa;                    
                    <mxGeometry x="230" y="137.5" width="60" height="30" as="geometry"/>
                    &#xa;                
                </mxCell>
                &#xa;                
                <mxCell id="JionX5n11fjDRd3rEtIe-2" value="inclusive" style="text;html=1;align=center;verticalAlign=middle;resizable=0;points=[];autosize=1;fillColor=#ed4040;fontColor=#FFFFFF;" parent="7R14fCLwrGg5KSLKVecQ-1" vertex="1">
                    &#xa;                    
                    <mxGeometry x="200" y="20" width="60" height="20" as="geometry"/>
                    &#xa;                
                </mxCell>
                &#xa;                
                <mxCell id="_eWxWbyylzoyJP_joPFg-42" value="Input/Output" style="text;html=1;align=center;verticalAlign=middle;resizable=0;points=[];autosize=1;fillColor=#ED4040;fontColor=#FFFFFF;" parent="7R14fCLwrGg5KSLKVecQ-1" vertex="1">
                    &#xa;                    
                    <mxGeometry x="600" y="20" width="80" height="20" as="geometry"/>
                    &#xa;                
                </mxCell>
                &#xa;                
                <mxCell id="_eWxWbyylzoyJP_joPFg-43" value="" style="group" parent="7R14fCLwrGg5KSLKVecQ-1" vertex="1" connectable="0">
                    &#xa;                    
                    <mxGeometry x="490" y="50" width="312" height="140" as="geometry"/>
                    &#xa;                
                </mxCell>
                &#xa;                
                <mxCell id="_eWxWbyylzoyJP_joPFg-32" value="" style="group" parent="_eWxWbyylzoyJP_joPFg-43" vertex="1" connectable="0">
                    &#xa;                    
                    <mxGeometry width="312" height="60" as="geometry"/>
                    &#xa;                
                </mxCell>
                &#xa;                
                <mxCell id="_eWxWbyylzoyJP_joPFg-23" value="Answers" style="text;html=1;align=left;verticalAlign=middle;resizable=0;points=[];autosize=1;" parent="_eWxWbyylzoyJP_joPFg-32" vertex="1">
                    &#xa;                    
                    <mxGeometry x="252" y="20" width="60" height="20" as="geometry"/>
                    &#xa;                
                </mxCell>
                &#xa;                
                <mxCell id="_eWxWbyylzoyJP_joPFg-24" value="" style="group" parent="_eWxWbyylzoyJP_joPFg-32" vertex="1" connectable="0">
                    &#xa;                    
                    <mxGeometry width="248" height="60" as="geometry"/>
                    &#xa;                
                </mxCell>
                &#xa;                
                <mxCell id="_eWxWbyylzoyJP_joPFg-0" value="Rules" style="text;html=1;align=right;verticalAlign=middle;resizable=0;points=[];autosize=1;" parent="_eWxWbyylzoyJP_joPFg-24" vertex="1">
                    &#xa;                    
                    <mxGeometry y="5" width="50" height="20" as="geometry"/>
                    &#xa;                
                </mxCell>
                &#xa;                
                <mxCell id="_eWxWbyylzoyJP_joPFg-3" value="Data" style="text;html=1;align=right;verticalAlign=middle;resizable=0;points=[];autosize=1;" parent="_eWxWbyylzoyJP_joPFg-24" vertex="1">
                    &#xa;                    
                    <mxGeometry x="10" y="35" width="40" height="20" as="geometry"/>
                    &#xa;                
                </mxCell>
                &#xa;                
                <mxCell id="_eWxWbyylzoyJP_joPFg-22" style="edgeStyle=orthogonalEdgeStyle;rounded=0;orthogonalLoop=1;jettySize=auto;html=1;" parent="_eWxWbyylzoyJP_joPFg-24" source="_eWxWbyylzoyJP_joPFg-10" edge="1">
                    &#xa;                    
                    <mxGeometry relative="1" as="geometry">
                        &#xa;                        
                        <mxPoint x="248" y="30" as="targetPoint"/>
                        &#xa;                    
                    </mxGeometry>
                    &#xa;                
                </mxCell>
                &#xa;                
                <mxCell id="_eWxWbyylzoyJP_joPFg-10" value="Classical&lt;br&gt;programming" style="rounded=0;whiteSpace=wrap;html=1;" parent="_eWxWbyylzoyJP_joPFg-24" vertex="1">
                    &#xa;                    
                    <mxGeometry x="88" width="120" height="60" as="geometry"/>
                    &#xa;                
                </mxCell>
                &#xa;                
                <mxCell id="_eWxWbyylzoyJP_joPFg-12" style="edgeStyle=orthogonalEdgeStyle;rounded=0;orthogonalLoop=1;jettySize=auto;html=1;entryX=0;entryY=0.25;entryDx=0;entryDy=0;" parent="_eWxWbyylzoyJP_joPFg-24" source="_eWxWbyylzoyJP_joPFg-0" target="_eWxWbyylzoyJP_joPFg-10" edge="1">
                    &#xa;                    
                    <mxGeometry relative="1" as="geometry"/>
                    &#xa;                
                </mxCell>
                &#xa;                
                <mxCell id="_eWxWbyylzoyJP_joPFg-21" style="edgeStyle=orthogonalEdgeStyle;rounded=0;orthogonalLoop=1;jettySize=auto;html=1;entryX=0;entryY=0.75;entryDx=0;entryDy=0;" parent="_eWxWbyylzoyJP_joPFg-24" source="_eWxWbyylzoyJP_joPFg-3" target="_eWxWbyylzoyJP_joPFg-10" edge="1">
                    &#xa;                    
                    <mxGeometry relative="1" as="geometry"/>
                    &#xa;                
                </mxCell>
                &#xa;                
                <mxCell id="_eWxWbyylzoyJP_joPFg-33" value="" style="group" parent="_eWxWbyylzoyJP_joPFg-43" vertex="1" connectable="0">
                    &#xa;                    
                    <mxGeometry y="80" width="312" height="60" as="geometry"/>
                    &#xa;                
                </mxCell>
                &#xa;                
                <mxCell id="_eWxWbyylzoyJP_joPFg-34" value="Rules" style="text;html=1;align=left;verticalAlign=middle;resizable=0;points=[];autosize=1;" parent="_eWxWbyylzoyJP_joPFg-33" vertex="1">
                    &#xa;                    
                    <mxGeometry x="252" y="20" width="50" height="20" as="geometry"/>
                    &#xa;                
                </mxCell>
                &#xa;                
                <mxCell id="_eWxWbyylzoyJP_joPFg-35" value="" style="group" parent="_eWxWbyylzoyJP_joPFg-33" vertex="1" connectable="0">
                    &#xa;                    
                    <mxGeometry width="248" height="60" as="geometry"/>
                    &#xa;                
                </mxCell>
                &#xa;                
                <mxCell id="_eWxWbyylzoyJP_joPFg-36" value="Data" style="text;html=1;align=right;verticalAlign=middle;resizable=0;points=[];autosize=1;" parent="_eWxWbyylzoyJP_joPFg-35" vertex="1">
                    &#xa;                    
                    <mxGeometry x="10" y="5" width="40" height="20" as="geometry"/>
                    &#xa;                
                </mxCell>
                &#xa;                
                <mxCell id="_eWxWbyylzoyJP_joPFg-37" value="Answers" style="text;html=1;align=right;verticalAlign=middle;resizable=0;points=[];autosize=1;" parent="_eWxWbyylzoyJP_joPFg-35" vertex="1">
                    &#xa;                    
                    <mxGeometry x="-10" y="35" width="60" height="20" as="geometry"/>
                    &#xa;                
                </mxCell>
                &#xa;                
                <mxCell id="_eWxWbyylzoyJP_joPFg-38" style="edgeStyle=orthogonalEdgeStyle;rounded=0;orthogonalLoop=1;jettySize=auto;html=1;" parent="_eWxWbyylzoyJP_joPFg-35" source="_eWxWbyylzoyJP_joPFg-39" edge="1">
                    &#xa;                    
                    <mxGeometry relative="1" as="geometry">
                        &#xa;                        
                        <mxPoint x="248" y="30" as="targetPoint"/>
                        &#xa;                    
                    </mxGeometry>
                    &#xa;                
                </mxCell>
                &#xa;                
                <mxCell id="_eWxWbyylzoyJP_joPFg-39" value="Maching&lt;br&gt;learning" style="rounded=0;whiteSpace=wrap;html=1;" parent="_eWxWbyylzoyJP_joPFg-35" vertex="1">
                    &#xa;                    
                    <mxGeometry x="88" width="120" height="60" as="geometry"/>
                    &#xa;                
                </mxCell>
                &#xa;                
                <mxCell id="_eWxWbyylzoyJP_joPFg-40" style="edgeStyle=orthogonalEdgeStyle;rounded=0;orthogonalLoop=1;jettySize=auto;html=1;entryX=0;entryY=0.25;entryDx=0;entryDy=0;" parent="_eWxWbyylzoyJP_joPFg-35" source="_eWxWbyylzoyJP_joPFg-36" target="_eWxWbyylzoyJP_joPFg-39" edge="1">
                    &#xa;                    
                    <mxGeometry relative="1" as="geometry"/>
                    &#xa;                
                </mxCell>
                &#xa;                
                <mxCell id="_eWxWbyylzoyJP_joPFg-41" style="edgeStyle=orthogonalEdgeStyle;rounded=0;orthogonalLoop=1;jettySize=auto;html=1;entryX=0;entryY=0.75;entryDx=0;entryDy=0;" parent="_eWxWbyylzoyJP_joPFg-35" source="_eWxWbyylzoyJP_joPFg-37" target="_eWxWbyylzoyJP_joPFg-39" edge="1">
                    &#xa;                    
                    <mxGeometry relative="1" as="geometry"/>
                    &#xa;                
                </mxCell>
                &#xa;            
            </root>
            &#xa;        
        </mxGraphModel>
        &#xa;    
    </diagram>
</mxfile>